static optimization
version=1
nRows=7
nColumns=93
inDegrees=yes
endheader
time	glut_med1_r	glut_med2_r	glut_med3_r	glut_min1_r	glut_min2_r	glut_min3_r	semimem_r	semiten_r	bifemlh_r	bifemsh_r	sar_r	add_long_r	add_brev_r	add_mag1_r	add_mag2_r	add_mag3_r	tfl_r	pect_r	grac_r	glut_max1_r	glut_max2_r	glut_max3_r	iliacus_r	psoas_r	quad_fem_r	gem_r	peri_r	rect_fem_r	vas_med_r	vas_int_r	vas_lat_r	med_gas_r	lat_gas_r	soleus_r	tib_post_r	flex_dig_r	flex_hal_r	tib_ant_r	per_brev_r	per_long_r	per_tert_r	ext_dig_r	ext_hal_r	glut_med1_l	glut_med2_l	glut_med3_l	glut_min1_l	glut_min2_l	glut_min3_l	semimem_l	semiten_l	bifemlh_l	bifemsh_l	sar_l	add_long_l	add_brev_l	add_mag1_l	add_mag2_l	add_mag3_l	tfl_l	pect_l	grac_l	glut_max1_l	glut_max2_l	glut_max3_l	iliacus_l	psoas_l	quad_fem_l	gem_l	peri_l	rect_fem_l	vas_med_l	vas_int_l	vas_lat_l	med_gas_l	lat_gas_l	soleus_l	tib_post_l	flex_dig_l	flex_hal_l	tib_ant_l	per_brev_l	per_long_l	per_tert_l	ext_dig_l	ext_hal_l	ercspn_r	ercspn_l	intobl_r	intobl_l	extobl_r	extobl_l
0.620000	13.292885	58.284964	133.930694	4.510362	12.569959	26.416242	196.259694	7.785008	0.000000	225.210816	12.221449	0.000000	0.000000	0.000000	0.000000	0.000000	11.792298	0.000000	0.000000	1.911313	0.000000	0.000000	107.044675	116.870376	0.000000	5.067032	57.153473	0.000000	0.000000	0.000000	0.000000	53.704554	0.000000	0.000000	0.000000	8.968221	3.856117	107.260837	18.740187	57.981192	7.088361	16.442997	0.000000	386.683090	204.488760	0.000000	153.291406	104.436947	47.185321	21.903721	1.644428	0.000000	524.671953	36.792672	0.000000	0.000000	0.000000	0.000000	0.000000	116.262970	0.000000	0.000000	0.000000	0.000000	0.000000	500.990957	535.977281	0.000000	0.000000	0.000000	0.000000	0.000000	0.000000	0.000000	1047.972286	245.765881	982.809544	412.525403	3.469783	1.895985	86.071759	0.000000	0.000000	0.000000	6.473491	5.799086	355.032125	7.477644	93.149439	0.000000	0.000000	0.000000
0.636000	5.303945	49.955194	113.127280	2.717162	9.485189	21.047645	349.893700	24.829709	93.051736	198.362890	8.465345	0.000000	0.000000	0.000000	0.000000	0.000000	6.827478	0.000000	0.000000	5.288862	0.000000	0.000000	51.843804	59.716310	0.895310	3.228176	44.948742	0.000000	0.000000	0.000000	0.000000	21.255336	0.000000	0.000000	0.000000	6.345793	2.306235	92.925649	18.123411	59.883095	6.501434	15.127889	0.000000	328.285679	171.922221	0.000000	144.370641	92.855400	37.990037	6.846344	0.000000	0.000000	448.468806	41.675424	0.000000	0.000000	0.000000	0.000000	0.000000	135.435550	0.000000	0.000000	0.000000	0.000000	0.000000	537.006373	567.562974	0.000000	0.000000	0.000000	0.000000	0.000000	0.000000	0.000000	942.522130	191.823332	1120.234399	369.359563	2.073303	1.016955	62.966146	0.000000	0.000000	0.000000	4.481284	4.959134	373.282818	63.818211	93.544814	0.000000	0.000000	0.000000
0.652000	0.000000	0.000000	12.403413	0.000000	0.000000	0.000000	393.557152	41.546944	207.406716	73.801230	0.000000	8.722089	9.677770	10.412579	6.462284	9.272239	0.000000	0.763825	4.618867	0.568341	17.750599	39.981184	0.000000	0.000000	22.012739	2.430517	11.014180	0.000000	0.000000	0.000000	0.000000	0.000000	0.000000	0.000000	0.000000	5.983022	1.993418	112.662351	11.181682	28.869910	6.420328	17.539230	0.074471	302.856204	138.974575	0.007324	112.344177	72.502043	31.074449	4.502135	0.000000	0.000000	431.230841	37.472652	0.000000	0.000000	0.000000	0.000000	0.000000	112.315033	0.000000	0.000000	0.000000	0.000000	0.000000	528.783838	581.795891	0.000000	0.000000	0.000000	0.000000	0.000000	0.000000	0.000000	818.663056	167.285528	1284.704728	381.328304	1.812877	0.916441	56.913619	0.000000	0.000000	0.000000	3.274235	4.900677	370.378629	122.790682	86.270230	0.000000	0.000000	0.000000
0.668000	0.000000	0.000000	0.000000	0.000000	0.000000	0.000000	216.142941	31.127127	166.203480	0.000000	0.000000	55.639082	44.023765	34.779552	26.155592	55.289600	0.000000	3.467046	7.118779	0.000000	17.630763	98.775719	0.000000	0.000000	32.189116	2.267799	0.000000	0.000000	13.974113	16.998333	26.300072	0.000000	0.000000	0.000000	0.000000	8.855710	3.745956	193.144160	7.805610	7.653975	9.076209	24.761932	0.358569	257.561361	111.479176	0.000000	99.609809	62.904782	26.005363	1.611237	0.000000	0.000000	365.548147	33.860810	0.000000	0.000000	0.000000	0.000000	0.000000	96.471182	0.000000	0.000000	0.000000	0.000000	0.000000	559.763099	625.594069	0.000000	0.000000	0.000000	0.000000	0.000000	0.000000	0.000000	636.626316	131.085782	1435.614193	390.712216	1.571299	0.826433	50.667086	0.000000	0.000000	0.000000	2.008422	4.798376	339.201237	181.597280	69.830675	0.000000	0.000000	0.000000
0.684000	0.000000	0.000000	0.000000	0.000000	0.000000	0.000000	161.974220	26.567394	145.383106	0.000000	0.000000	53.298110	43.656093	33.877898	26.258011	60.544639	0.000000	3.162391	6.196121	0.000000	29.809334	102.302816	0.000000	0.000000	30.667208	2.168304	0.000000	0.000000	54.950688	66.234826	109.616021	0.000000	0.000000	0.000000	0.000000	8.987344	4.331434	248.886300	12.217812	25.030116	12.442193	27.269618	0.000000	220.507340	94.996894	5.998010	85.322863	55.148694	24.563092	0.042685	0.000000	0.000000	231.704803	28.002273	0.000000	0.000000	0.000000	0.000000	0.000000	78.780753	0.000000	0.000000	0.000000	0.000000	0.000000	590.650683	681.962719	0.000000	0.000000	0.000000	0.000000	0.000000	0.000000	0.000000	387.006301	80.163950	1453.614709	313.032247	0.000000	0.000000	22.834270	0.000000	0.000000	0.000000	0.193715	3.561046	286.991049	236.161580	44.342683	0.000000	0.000000	0.000000
0.700000	0.000000	0.000000	0.000000	0.000000	0.000000	0.000000	190.184493	30.670225	145.683519	0.000000	0.000000	27.889379	29.884075	23.322458	21.038307	62.759536	0.000000	1.175349	4.281544	7.914592	48.998984	88.293358	0.000000	0.000000	13.452032	0.149473	0.000000	0.000000	99.140935	118.658819	208.411539	0.000000	0.000000	0.000000	0.000000	6.932383	3.580896	256.724781	7.591360	10.002711	12.038443	24.451268	0.000000	172.478092	75.516247	26.666552	65.947875	46.004310	23.170140	0.000000	0.000000	0.000000	109.692622	20.708227	0.000000	0.000000	0.000000	0.000000	0.000000	58.211673	0.000000	0.000000	0.000000	0.000000	0.000000	598.530553	710.549099	0.000000	0.000000	0.000000	23.985038	0.000000	0.000000	0.000000	189.490087	39.668478	1338.549312	222.139413	0.000000	0.000000	0.000000	0.000000	0.000000	0.000000	1.736653	2.609438	228.295354	282.016595	11.543461	0.000000	0.000000	0.000000
0.716000	32.938591	19.985354	22.777113	0.000000	0.000000	0.000000	191.091195	34.936732	146.134134	0.000000	0.000000	2.257312	18.109051	15.667955	16.929406	62.231425	0.000000	0.000000	3.095982	16.394189	68.635867	80.896387	0.000000	0.000000	4.492428	0.000000	0.000000	0.000000	143.747992	169.987917	314.517352	0.000000	0.000000	0.000000	0.181701	5.587303	3.171465	271.674330	0.000000	0.000000	2.494049	17.488853	3.947470	111.923727	46.394441	28.112676	41.420768	32.734753	19.287689	0.000000	0.000000	0.000000	68.068818	14.360254	0.000000	0.000000	0.000000	0.000000	0.000000	36.002428	0.000000	0.000000	0.000000	0.000000	0.000000	544.107638	655.352303	0.000000	0.000000	7.503692	149.423933	0.000000	0.000000	0.000000	109.000869	22.904399	1024.620898	138.449196	0.000000	0.000000	0.000000	0.000000	0.000000	0.000000	4.348269	1.949234	205.731499	356.159743	0.000000	21.034620	0.000000	0.000000
